<?xml version="1.0" standalone="no"?><!-- Generator: Gravit.io -->
<svg xmlns="http://www.w3.org/2000/svg" style="isolation:isolate" viewBox="0 0 32 32" width="32" height="32"><defs><clipPath id="_clipPath_wfUVw1NxcBoQA6t5cNlClxINPY9mL5HZ"><rect width="32" height="32"/></clipPath></defs><g clip-path="url(#_clipPath_wfUVw1NxcBoQA6t5cNlClxINPY9mL5HZ)"><path d=" M 23.071 6.101 L 16 13.172 L 8.929 6.101 C 8.148 5.32 6.881 5.32 6.101 6.101 C 5.32 6.881 5.32 8.148 6.101 8.929 L 13.172 16 L 6.101 23.071 C 5.32 23.852 5.32 25.119 6.101 25.899 C 6.881 26.68 8.148 26.68 8.929 25.899 L 16 18.828 L 23.071 25.899 C 23.852 26.68 25.119 26.68 25.899 25.899 C 26.68 25.119 26.68 23.852 25.899 23.071 L 18.828 16 L 25.899 8.929 C 26.68 8.148 26.68 6.881 25.899 6.101 C 25.119 5.32 23.852 5.32 23.071 6.101 Z " fill="rgb(0,0,0)"/></g></svg>